<svg id="visual" viewBox="0 0 900 675" width="900" height="675" xmlns="http://www.w3.org/2000/svg" xmlns:xlink="http://www.w3.org/1999/xlink" version="1.1"><rect width="900" height="675" fill="#ffffff"></rect><g><g transform="translate(470 629)"><path d="M98.3 -31.8C110.5 5.5 91.7 53 55.8 79.8C19.8 106.6 -33.3 112.8 -64.2 90C-95.1 67.2 -103.7 15.3 -89.3 -25C-74.9 -65.3 -37.4 -94.1 2.8 -95.1C43.1 -96 86.2 -69 98.3 -31.8Z" stroke="#138978" fill="none" stroke-width="20"></path></g><g transform="translate(898 62)"><path d="M103 -29.6C117.5 11.1 102.3 65.4 68.1 89.2C34 112.9 -19 106 -53.4 79.6C-87.8 53.1 -103.6 7.2 -91.6 -30.1C-79.6 -67.4 -39.8 -96 2.2 -96.7C44.3 -97.5 88.5 -70.3 103 -29.6Z" stroke="#138978" fill="none" stroke-width="20"></path></g><g transform="translate(151 545)"><path d="M56 -16.4C63.2 3.9 53.1 31.5 33 46.4C12.9 61.2 -17.2 63.1 -34.8 49.9C-52.3 36.7 -57.3 8.2 -49.5 -13C-41.6 -34.3 -20.8 -48.3 1.8 -48.9C24.4 -49.5 48.8 -36.6 56 -16.4Z" stroke="#138978" fill="none" stroke-width="20"></path></g><g transform="translate(578 44)"><path d="M98.3 -37.5C108.6 -0.2 85.2 42.4 50.6 66.9C16 91.4 -29.8 97.7 -58.2 77.6C-86.7 57.5 -97.8 11 -85.3 -29.4C-72.7 -69.9 -36.3 -104.3 3.8 -105.6C44 -106.8 88 -74.8 98.3 -37.5Z" stroke="#138978" fill="none" stroke-width="20"></path></g><g transform="translate(769 499)"><path d="M73 -24.3C82 4 68 39.2 44.3 55.1C20.6 71 -13 67.5 -34.4 51C-55.8 34.6 -65.2 5.2 -57.4 -21.4C-49.7 -47.9 -24.8 -71.6 3.6 -72.7C32 -73.9 64 -52.5 73 -24.3Z" stroke="#138978" fill="none" stroke-width="20"></path></g></g></svg>