<svg id="visual" viewBox="0 0 900 600" width="900" height="600" xmlns="http://www.w3.org/2000/svg" xmlns:xlink="http://www.w3.org/1999/xlink" version="1.1"><rect x="0" y="0" width="900" height="600" fill="#FFFFFF"></rect><defs><linearGradient id="grad1_0" x1="33.3%" y1="100%" x2="100%" y2="0%"><stop offset="20%" stop-color="#ffffff" stop-opacity="1"></stop><stop offset="80%" stop-color="#ffffff" stop-opacity="1"></stop></linearGradient></defs><defs><linearGradient id="grad2_0" x1="0%" y1="100%" x2="66.7%" y2="0%"><stop offset="20%" stop-color="#ffffff" stop-opacity="1"></stop><stop offset="80%" stop-color="#ffffff" stop-opacity="1"></stop></linearGradient></defs><g transform="translate(900, 600)"><path d="M-162.2 0C-161.3 -22.5 -160.3 -45.1 -149.9 -62.1C-139.5 -79.1 -119.5 -90.6 -103.2 -103.2C-87 -115.8 -74.4 -129.5 -57.8 -139.5C-41.2 -149.5 -20.6 -155.9 0 -162.2L0 0Z" fill="#009473"></path></g><g transform="translate(0, 0)"><path d="M162.2 0C156 20.1 149.7 40.2 141.4 58.6C133 76.9 122.7 93.5 109.6 109.6C96.5 125.7 80.8 141.2 62.1 149.9C43.4 158.6 21.7 160.4 0 162.2L0 0Z" fill="#009473"></path></g></svg>