<svg id="visual" viewBox="0 0 900 600" width="900" height="600" xmlns="http://www.w3.org/2000/svg" xmlns:xlink="http://www.w3.org/1999/xlink" version="1.1"><g><g transform="translate(331 83)"><path d="M0 -13.1L5.7 -11.8L10.3 -8.2L12.8 -2.9L12.8 2.9L10.3 8.2L5.7 11.8L0 13.1L-5.7 11.8L-10.3 8.2L-12.8 2.9L-12.8 -2.9L-10.3 -8.2L-5.7 -11.8Z" fill="#009473"></path></g><g transform="translate(126 194)"><path d="M0 -1L0.4 -0.9L0.8 -0.6L1 -0.2L1 0.2L0.8 0.6L0.4 0.9L0 1L-0.4 0.9L-0.8 0.6L-1 0.2L-1 -0.2L-0.8 -0.6L-0.4 -0.9Z" fill="#009473"></path></g><g transform="translate(388 308)"><path d="M0 -9L3.9 -8.1L7 -5.6L8.8 -2L8.8 2L7 5.6L3.9 8.1L0 9L-3.9 8.1L-7 5.6L-8.8 2L-8.8 -2L-7 -5.6L-3.9 -8.1Z" fill="#009473"></path></g><g transform="translate(276 73)"><path d="M0 -7L3 -6.3L5.5 -4.4L6.8 -1.6L6.8 1.6L5.5 4.4L3 6.3L0 7L-3 6.3L-5.5 4.4L-6.8 1.6L-6.8 -1.6L-5.5 -4.4L-3 -6.3Z" fill="#009473"></path></g><g transform="translate(888 531)"><path d="M0 -12L5.2 -10.8L9.4 -7.5L11.7 -2.7L11.7 2.7L9.4 7.5L5.2 10.8L0 12L-5.2 10.8L-9.4 7.5L-11.7 2.7L-11.7 -2.7L-9.4 -7.5L-5.2 -10.8Z" fill="#009473"></path></g><g transform="translate(673 362)"><path d="M0 -3L1.3 -2.7L2.3 -1.9L2.9 -0.7L2.9 0.7L2.3 1.9L1.3 2.7L0 3L-1.3 2.7L-2.3 1.9L-2.9 0.7L-2.9 -0.7L-2.3 -1.9L-1.3 -2.7Z" fill="#009473"></path></g><g transform="translate(178 554)"><path d="M0 -7L3 -6.3L5.5 -4.4L6.8 -1.6L6.8 1.6L5.5 4.4L3 6.3L0 7L-3 6.3L-5.5 4.4L-6.8 1.6L-6.8 -1.6L-5.5 -4.4L-3 -6.3Z" fill="#009473"></path></g><g transform="translate(457 153)"><path d="M0 -12L5.2 -10.8L9.4 -7.5L11.7 -2.7L11.7 2.7L9.4 7.5L5.2 10.8L0 12L-5.2 10.8L-9.4 7.5L-11.7 2.7L-11.7 -2.7L-9.4 -7.5L-5.2 -10.8Z" fill="#009473"></path></g><g transform="translate(377 165)"><path d="M0 -1L0.4 -0.9L0.8 -0.6L1 -0.2L1 0.2L0.8 0.6L0.4 0.9L0 1L-0.4 0.9L-0.8 0.6L-1 0.2L-1 -0.2L-0.8 -0.6L-0.4 -0.9Z" fill="#009473"></path></g><g transform="translate(561 144)"><path d="M0 -10L4.3 -9L7.8 -6.2L9.7 -2.2L9.7 2.2L7.8 6.2L4.3 9L0 10L-4.3 9L-7.8 6.2L-9.7 2.2L-9.7 -2.2L-7.8 -6.2L-4.3 -9Z" fill="#009473"></path></g><g transform="translate(10 275)"><path d="M0 -4L1.7 -3.6L3.1 -2.5L3.9 -0.9L3.9 0.9L3.1 2.5L1.7 3.6L0 4L-1.7 3.6L-3.1 2.5L-3.9 0.9L-3.9 -0.9L-3.1 -2.5L-1.7 -3.6Z" fill="#009473"></path></g><g transform="translate(15 428)"><path d="M0 -10L4.3 -9L7.8 -6.2L9.7 -2.2L9.7 2.2L7.8 6.2L4.3 9L0 10L-4.3 9L-7.8 6.2L-9.7 2.2L-9.7 -2.2L-7.8 -6.2L-4.3 -9Z" fill="#009473"></path></g><g transform="translate(819 556)"><path d="M0 -1L0.4 -0.9L0.8 -0.6L1 -0.2L1 0.2L0.8 0.6L0.4 0.9L0 1L-0.4 0.9L-0.8 0.6L-1 0.2L-1 -0.2L-0.8 -0.6L-0.4 -0.9Z" fill="#009473"></path></g><g transform="translate(849 244)"><path d="M0 -12L5.2 -10.8L9.4 -7.5L11.7 -2.7L11.7 2.7L9.4 7.5L5.2 10.8L0 12L-5.2 10.8L-9.4 7.5L-11.7 2.7L-11.7 -2.7L-9.4 -7.5L-5.2 -10.8Z" fill="#009473"></path></g><g transform="translate(290 576)"><path d="M0 -9L3.9 -8.1L7 -5.6L8.8 -2L8.8 2L7 5.6L3.9 8.1L0 9L-3.9 8.1L-7 5.6L-8.8 2L-8.8 -2L-7 -5.6L-3.9 -8.1Z" fill="#009473"></path></g><g transform="translate(420 9)"><path d="M0 -1L0.4 -0.9L0.8 -0.6L1 -0.2L1 0.2L0.8 0.6L0.4 0.9L0 1L-0.4 0.9L-0.8 0.6L-1 0.2L-1 -0.2L-0.8 -0.6L-0.4 -0.9Z" fill="#009473"></path></g><g transform="translate(72 326)"><path d="M0 -5L2.2 -4.5L3.9 -3.1L4.9 -1.1L4.9 1.1L3.9 3.1L2.2 4.5L0 5L-2.2 4.5L-3.9 3.1L-4.9 1.1L-4.9 -1.1L-3.9 -3.1L-2.2 -4.5Z" fill="#009473"></path></g><g transform="translate(417 446)"><path d="M0 -7L3 -6.3L5.5 -4.4L6.8 -1.6L6.8 1.6L5.5 4.4L3 6.3L0 7L-3 6.3L-5.5 4.4L-6.8 1.6L-6.8 -1.6L-5.5 -4.4L-3 -6.3Z" fill="#009473"></path></g><g transform="translate(230 225)"><path d="M0 -2L0.9 -1.8L1.6 -1.2L1.9 -0.4L1.9 0.4L1.6 1.2L0.9 1.8L0 2L-0.9 1.8L-1.6 1.2L-1.9 0.4L-1.9 -0.4L-1.6 -1.2L-0.9 -1.8Z" fill="#009473"></path></g><g transform="translate(507 185)"><path d="M0 -8L3.5 -7.2L6.3 -5L7.8 -1.8L7.8 1.8L6.3 5L3.5 7.2L0 8L-3.5 7.2L-6.3 5L-7.8 1.8L-7.8 -1.8L-6.3 -5L-3.5 -7.2Z" fill="#009473"></path></g><g transform="translate(782 528)"><path d="M0 -6L2.6 -5.4L4.7 -3.7L5.8 -1.3L5.8 1.3L4.7 3.7L2.6 5.4L0 6L-2.6 5.4L-4.7 3.7L-5.8 1.3L-5.8 -1.3L-4.7 -3.7L-2.6 -5.4Z" fill="#009473"></path></g><g transform="translate(751 443)"><path d="M0 -7L3 -6.3L5.5 -4.4L6.8 -1.6L6.8 1.6L5.5 4.4L3 6.3L0 7L-3 6.3L-5.5 4.4L-6.8 1.6L-6.8 -1.6L-5.5 -4.4L-3 -6.3Z" fill="#009473"></path></g><g transform="translate(500 371)"><path d="M0 -2L0.9 -1.8L1.6 -1.2L1.9 -0.4L1.9 0.4L1.6 1.2L0.9 1.8L0 2L-0.9 1.8L-1.6 1.2L-1.9 0.4L-1.9 -0.4L-1.6 -1.2L-0.9 -1.8Z" fill="#009473"></path></g><g transform="translate(825 130)"><path d="M0 -3L1.3 -2.7L2.3 -1.9L2.9 -0.7L2.9 0.7L2.3 1.9L1.3 2.7L0 3L-1.3 2.7L-2.3 1.9L-2.9 0.7L-2.9 -0.7L-2.3 -1.9L-1.3 -2.7Z" fill="#009473"></path></g><g transform="translate(517 144)"><path d="M0 -7L3 -6.3L5.5 -4.4L6.8 -1.6L6.8 1.6L5.5 4.4L3 6.3L0 7L-3 6.3L-5.5 4.4L-6.8 1.6L-6.8 -1.6L-5.5 -4.4L-3 -6.3Z" fill="#009473"></path></g><g transform="translate(33 228)"><path d="M0 -3L1.3 -2.7L2.3 -1.9L2.9 -0.7L2.9 0.7L2.3 1.9L1.3 2.7L0 3L-1.3 2.7L-2.3 1.9L-2.9 0.7L-2.9 -0.7L-2.3 -1.9L-1.3 -2.7Z" fill="#009473"></path></g><g transform="translate(499 495)"><path d="M0 -2L0.9 -1.8L1.6 -1.2L1.9 -0.4L1.9 0.4L1.6 1.2L0.9 1.8L0 2L-0.9 1.8L-1.6 1.2L-1.9 0.4L-1.9 -0.4L-1.6 -1.2L-0.9 -1.8Z" fill="#009473"></path></g><g transform="translate(363 191)"><path d="M0 -12L5.2 -10.8L9.4 -7.5L11.7 -2.7L11.7 2.7L9.4 7.5L5.2 10.8L0 12L-5.2 10.8L-9.4 7.5L-11.7 2.7L-11.7 -2.7L-9.4 -7.5L-5.2 -10.8Z" fill="#009473"></path></g><g transform="translate(286 4)"><path d="M0 -6L2.6 -5.4L4.7 -3.7L5.8 -1.3L5.8 1.3L4.7 3.7L2.6 5.4L0 6L-2.6 5.4L-4.7 3.7L-5.8 1.3L-5.8 -1.3L-4.7 -3.7L-2.6 -5.4Z" fill="#009473"></path></g><g transform="translate(495 532)"><path d="M0 -10L4.3 -9L7.8 -6.2L9.7 -2.2L9.7 2.2L7.8 6.2L4.3 9L0 10L-4.3 9L-7.8 6.2L-9.7 2.2L-9.7 -2.2L-7.8 -6.2L-4.3 -9Z" fill="#009473"></path></g><g transform="translate(304 275)"><path d="M0 -11L4.8 -9.9L8.6 -6.9L10.7 -2.4L10.7 2.4L8.6 6.9L4.8 9.9L0 11L-4.8 9.9L-8.6 6.9L-10.7 2.4L-10.7 -2.4L-8.6 -6.9L-4.8 -9.9Z" fill="#009473"></path></g><g transform="translate(743 13)"><path d="M0 -8L3.5 -7.2L6.3 -5L7.8 -1.8L7.8 1.8L6.3 5L3.5 7.2L0 8L-3.5 7.2L-6.3 5L-7.8 1.8L-7.8 -1.8L-6.3 -5L-3.5 -7.2Z" fill="#009473"></path></g><g transform="translate(60 215)"><path d="M0 -5L2.2 -4.5L3.9 -3.1L4.9 -1.1L4.9 1.1L3.9 3.1L2.2 4.5L0 5L-2.2 4.5L-3.9 3.1L-4.9 1.1L-4.9 -1.1L-3.9 -3.1L-2.2 -4.5Z" fill="#009473"></path></g><g transform="translate(134 384)"><path d="M0 -8L3.5 -7.2L6.3 -5L7.8 -1.8L7.8 1.8L6.3 5L3.5 7.2L0 8L-3.5 7.2L-6.3 5L-7.8 1.8L-7.8 -1.8L-6.3 -5L-3.5 -7.2Z" fill="#009473"></path></g><g transform="translate(451 208)"><path d="M0 -5L2.2 -4.5L3.9 -3.1L4.9 -1.1L4.9 1.1L3.9 3.1L2.2 4.5L0 5L-2.2 4.5L-3.9 3.1L-4.9 1.1L-4.9 -1.1L-3.9 -3.1L-2.2 -4.5Z" fill="#009473"></path></g><g transform="translate(495 317)"><path d="M0 -6L2.6 -5.4L4.7 -3.7L5.8 -1.3L5.8 1.3L4.7 3.7L2.6 5.4L0 6L-2.6 5.4L-4.7 3.7L-5.8 1.3L-5.8 -1.3L-4.7 -3.7L-2.6 -5.4Z" fill="#009473"></path></g><g transform="translate(370 573)"><path d="M0 -6L2.6 -5.4L4.7 -3.7L5.8 -1.3L5.8 1.3L4.7 3.7L2.6 5.4L0 6L-2.6 5.4L-4.7 3.7L-5.8 1.3L-5.8 -1.3L-4.7 -3.7L-2.6 -5.4Z" fill="#009473"></path></g><g transform="translate(844 51)"><path d="M0 -1L0.4 -0.9L0.8 -0.6L1 -0.2L1 0.2L0.8 0.6L0.4 0.9L0 1L-0.4 0.9L-0.8 0.6L-1 0.2L-1 -0.2L-0.8 -0.6L-0.4 -0.9Z" fill="#009473"></path></g><g transform="translate(653 524)"><path d="M0 -11L4.8 -9.9L8.6 -6.9L10.7 -2.4L10.7 2.4L8.6 6.9L4.8 9.9L0 11L-4.8 9.9L-8.6 6.9L-10.7 2.4L-10.7 -2.4L-8.6 -6.9L-4.8 -9.9Z" fill="#009473"></path></g><g transform="translate(258 452)"><path d="M0 -2L0.9 -1.8L1.6 -1.2L1.9 -0.4L1.9 0.4L1.6 1.2L0.9 1.8L0 2L-0.9 1.8L-1.6 1.2L-1.9 0.4L-1.9 -0.4L-1.6 -1.2L-0.9 -1.8Z" fill="#009473"></path></g><g transform="translate(499 12)"><path d="M0 -11L4.8 -9.9L8.6 -6.9L10.7 -2.4L10.7 2.4L8.6 6.9L4.8 9.9L0 11L-4.8 9.9L-8.6 6.9L-10.7 2.4L-10.7 -2.4L-8.6 -6.9L-4.8 -9.9Z" fill="#009473"></path></g><g transform="translate(532 316)"><path d="M0 -11L4.8 -9.9L8.6 -6.9L10.7 -2.4L10.7 2.4L8.6 6.9L4.8 9.9L0 11L-4.8 9.9L-8.6 6.9L-10.7 2.4L-10.7 -2.4L-8.6 -6.9L-4.8 -9.9Z" fill="#009473"></path></g><g transform="translate(814 285)"><path d="M0 -12L5.2 -10.8L9.4 -7.5L11.7 -2.7L11.7 2.7L9.4 7.5L5.2 10.8L0 12L-5.2 10.8L-9.4 7.5L-11.7 2.7L-11.7 -2.7L-9.4 -7.5L-5.2 -10.8Z" fill="#009473"></path></g><g transform="translate(6 302)"><path d="M0 -6L2.6 -5.4L4.7 -3.7L5.8 -1.3L5.8 1.3L4.7 3.7L2.6 5.4L0 6L-2.6 5.4L-4.7 3.7L-5.8 1.3L-5.8 -1.3L-4.7 -3.7L-2.6 -5.4Z" fill="#009473"></path></g><g transform="translate(6 1)"><path d="M0 -1L0.4 -0.9L0.8 -0.6L1 -0.2L1 0.2L0.8 0.6L0.4 0.9L0 1L-0.4 0.9L-0.8 0.6L-1 0.2L-1 -0.2L-0.8 -0.6L-0.4 -0.9Z" fill="#009473"></path></g><g transform="translate(48 591)"><path d="M0 -2L0.9 -1.8L1.6 -1.2L1.9 -0.4L1.9 0.4L1.6 1.2L0.9 1.8L0 2L-0.9 1.8L-1.6 1.2L-1.9 0.4L-1.9 -0.4L-1.6 -1.2L-0.9 -1.8Z" fill="#009473"></path></g><g transform="translate(554 562)"><path d="M0 -8L3.5 -7.2L6.3 -5L7.8 -1.8L7.8 1.8L6.3 5L3.5 7.2L0 8L-3.5 7.2L-6.3 5L-7.8 1.8L-7.8 -1.8L-6.3 -5L-3.5 -7.2Z" fill="#009473"></path></g><g transform="translate(605 353)"><path d="M0 -4L1.7 -3.6L3.1 -2.5L3.9 -0.9L3.9 0.9L3.1 2.5L1.7 3.6L0 4L-1.7 3.6L-3.1 2.5L-3.9 0.9L-3.9 -0.9L-3.1 -2.5L-1.7 -3.6Z" fill="#009473"></path></g><g transform="translate(162 108)"><path d="M0 -6L2.6 -5.4L4.7 -3.7L5.8 -1.3L5.8 1.3L4.7 3.7L2.6 5.4L0 6L-2.6 5.4L-4.7 3.7L-5.8 1.3L-5.8 -1.3L-4.7 -3.7L-2.6 -5.4Z" fill="#009473"></path></g><g transform="translate(535 287)"><path d="M0 -4L1.7 -3.6L3.1 -2.5L3.9 -0.9L3.9 0.9L3.1 2.5L1.7 3.6L0 4L-1.7 3.6L-3.1 2.5L-3.9 0.9L-3.9 -0.9L-3.1 -2.5L-1.7 -3.6Z" fill="#009473"></path></g></g></svg>