<svg id="visual" viewBox="0 0 900 600" width="900" height="600" xmlns="http://www.w3.org/2000/svg" xmlns:xlink="http://www.w3.org/1999/xlink" version="1.1"><path d="M764 600L782 600L782 545L818 545L818 491L773 491L773 436L845 436L845 382L782 382L782 327L800 327L800 273L845 273L845 218L845 218L845 164L836 164L836 109L845 109L845 55L836 55L836 0L900 0L900 55L900 55L900 109L900 109L900 164L900 164L900 218L900 218L900 273L900 273L900 327L900 327L900 382L900 382L900 436L900 436L900 491L900 491L900 545L900 545L900 600L900 600Z" fill="#39bf88"></path><path d="M692 600L611 600L611 545L638 545L638 491L674 491L674 436L701 436L701 382L701 382L701 327L620 327L620 273L782 273L782 218L683 218L683 164L728 164L728 109L683 109L683 55L755 55L755 0L837 0L837 55L846 55L846 109L837 109L837 164L846 164L846 218L846 218L846 273L801 273L801 327L783 327L783 382L846 382L846 436L774 436L774 491L819 491L819 545L783 545L783 600L765 600Z" fill="#2ab186"></path><path d="M323 600L449 600L449 545L512 545L512 491L404 491L404 436L557 436L557 382L359 382L359 327L404 327L404 273L341 273L341 218L449 218L449 164L332 164L332 109L341 109L341 55L422 55L422 0L756 0L756 55L684 55L684 109L729 109L729 164L684 164L684 218L783 218L783 273L621 273L621 327L702 327L702 382L702 382L702 436L675 436L675 491L639 491L639 545L612 545L612 600L693 600Z" fill="#1ea482"></path><path d="M179 600L98 600L98 545L143 545L143 491L242 491L242 436L107 436L107 382L206 382L206 327L197 327L197 273L134 273L134 218L233 218L233 164L152 164L152 109L179 109L179 55L215 55L215 0L423 0L423 55L342 55L342 109L333 109L333 164L450 164L450 218L342 218L342 273L405 273L405 327L360 327L360 382L558 382L558 436L405 436L405 491L513 491L513 545L450 545L450 600L324 600Z" fill="#15967e"></path><path d="M0 600L0 600L0 545L0 545L0 491L0 491L0 436L0 436L0 382L0 382L0 327L0 327L0 273L0 273L0 218L0 218L0 164L0 164L0 109L0 109L0 55L0 55L0 0L216 0L216 55L180 55L180 109L153 109L153 164L234 164L234 218L135 218L135 273L198 273L198 327L207 327L207 382L108 382L108 436L243 436L243 491L144 491L144 545L99 545L99 600L180 600Z" fill="#138978"></path></svg>